<?xml version="1.0" encoding="UTF-8" standalone="no"?>
<svg
   width="1500"
   zoomAndPan="magnify"
   viewBox="0 0 1125 1124.99995"
   height="1500"
   preserveAspectRatio="xMidYMid meet"
   version="1.0"
   id="svg274"
   sodipodi:docname="2.svg"
   inkscape:version="1.2.2 (732a01da63, 2022-12-09)"
   xmlns:inkscape="http://www.inkscape.org/namespaces/inkscape"
   xmlns:sodipodi="http://sodipodi.sourceforge.net/DTD/sodipodi-0.dtd"
   xmlns="http://www.w3.org/2000/svg"
   xmlns:svg="http://www.w3.org/2000/svg">
  <sodipodi:namedview
     id="namedview276"
     pagecolor="#ffffff"
     bordercolor="#666666"
     borderopacity="1.0"
     inkscape:showpageshadow="2"
     inkscape:pageopacity="0.0"
     inkscape:pagecheckerboard="0"
     inkscape:deskcolor="#d1d1d1"
     showgrid="false"
     inkscape:zoom="0.51733333"
     inkscape:cx="703.60825"
     inkscape:cy="750"
     inkscape:window-width="1920"
     inkscape:window-height="974"
     inkscape:window-x="-11"
     inkscape:window-y="-11"
     inkscape:window-maximized="1"
     inkscape:current-layer="svg274" />
  <defs
     id="defs266">
    <clipPath
       id="75dc3008fd">
      <path
         d="M 299.863281 112.5 L 824.863281 112.5 L 824.863281 806 L 299.863281 806 Z M 299.863281 112.5 "
         clip-rule="nonzero"
         id="path263" />
    </clipPath>
  </defs>
  <g
     id="g556"
     style="fill:#000000">
    <path
       fill="#000000"
       d="M 637.363281 936.753906 C 637.363281 937.980469 637.332031 939.210938 637.273438 940.4375 C 637.214844 941.664062 637.121094 942.886719 637.003906 944.109375 C 636.882812 945.332031 636.730469 946.550781 636.550781 947.765625 C 636.371094 948.980469 636.160156 950.1875 635.921875 951.394531 C 635.683594 952.597656 635.414062 953.796875 635.117188 954.988281 C 634.816406 956.179688 634.492188 957.363281 634.132812 958.535156 C 633.777344 959.710938 633.394531 960.878906 632.980469 962.035156 C 632.566406 963.191406 632.125 964.335938 631.65625 965.46875 C 631.183594 966.605469 630.6875 967.726562 630.164062 968.835938 C 629.636719 969.949219 629.085938 971.042969 628.507812 972.128906 C 627.929688 973.210938 627.324219 974.277344 626.691406 975.332031 C 626.0625 976.386719 625.40625 977.421875 624.722656 978.445312 C 624.042969 979.464844 623.335938 980.46875 622.605469 981.453125 C 621.871094 982.441406 621.117188 983.410156 620.339844 984.359375 C 619.5625 985.308594 618.757812 986.238281 617.933594 987.148438 C 617.109375 988.058594 616.265625 988.945312 615.398438 989.816406 C 614.527344 990.683594 613.640625 991.53125 612.730469 992.355469 C 611.820312 993.179688 610.890625 993.980469 609.941406 994.761719 C 608.996094 995.539062 608.027344 996.292969 607.039062 997.027344 C 606.054688 997.757812 605.050781 998.464844 604.03125 999.148438 C 603.011719 999.828125 601.972656 1000.484375 600.921875 1001.117188 C 599.867188 1001.75 598.800781 1002.351562 597.71875 1002.933594 C 596.636719 1003.511719 595.539062 1004.0625 594.429688 1004.589844 C 593.320312 1005.113281 592.199219 1005.609375 591.066406 1006.082031 C 589.929688 1006.550781 588.785156 1006.992188 587.628906 1007.40625 C 586.472656 1007.820312 585.308594 1008.207031 584.136719 1008.5625 C 582.960938 1008.917969 581.777344 1009.246094 580.585938 1009.542969 C 579.394531 1009.84375 578.199219 1010.113281 576.996094 1010.351562 C 575.792969 1010.589844 574.582031 1010.800781 573.367188 1010.980469 C 572.152344 1011.160156 570.9375 1011.3125 569.714844 1011.429688 C 568.492188 1011.550781 567.269531 1011.640625 566.042969 1011.703125 C 564.816406 1011.761719 563.589844 1011.792969 562.363281 1011.792969 C 561.136719 1011.792969 559.910156 1011.761719 558.683594 1011.703125 C 557.457031 1011.640625 556.234375 1011.550781 555.011719 1011.429688 C 553.789062 1011.3125 552.574219 1011.160156 551.359375 1010.980469 C 550.144531 1010.800781 548.9375 1010.589844 547.730469 1010.351562 C 546.527344 1010.113281 545.332031 1009.84375 544.140625 1009.542969 C 542.949219 1009.246094 541.765625 1008.917969 540.59375 1008.5625 C 539.417969 1008.207031 538.253906 1007.820312 537.097656 1007.40625 C 535.941406 1006.992188 534.796875 1006.550781 533.664062 1006.082031 C 532.527344 1005.609375 531.40625 1005.113281 530.296875 1004.589844 C 529.1875 1004.0625 528.089844 1003.511719 527.007812 1002.933594 C 525.925781 1002.351562 524.859375 1001.75 523.804688 1001.117188 C 522.753906 1000.484375 521.714844 999.828125 520.695312 999.148438 C 519.675781 998.464844 518.671875 997.757812 517.6875 997.027344 C 516.699219 996.292969 515.734375 995.539062 514.785156 994.761719 C 513.835938 993.980469 512.90625 993.179688 511.996094 992.355469 C 511.085938 991.53125 510.199219 990.683594 509.332031 989.816406 C 508.460938 988.945312 507.617188 988.058594 506.792969 987.148438 C 505.96875 986.238281 505.167969 985.308594 504.386719 984.359375 C 503.609375 983.410156 502.855469 982.441406 502.121094 981.453125 C 501.390625 980.46875 500.683594 979.464844 500.003906 978.445312 C 499.320312 977.421875 498.664062 976.386719 498.035156 975.332031 C 497.402344 974.277344 496.796875 973.210938 496.21875 972.128906 C 495.640625 971.042969 495.089844 969.949219 494.5625 968.835938 C 494.039062 967.726562 493.542969 966.605469 493.074219 965.46875 C 492.601562 964.335938 492.160156 963.191406 491.746094 962.035156 C 491.335938 960.878906 490.949219 959.710938 490.59375 958.535156 C 490.238281 957.363281 489.910156 956.179688 489.609375 954.988281 C 489.3125 953.796875 489.042969 952.597656 488.804688 951.394531 C 488.566406 950.1875 488.355469 948.980469 488.175781 947.765625 C 487.996094 946.550781 487.84375 945.332031 487.726562 944.109375 C 487.605469 942.886719 487.515625 941.664062 487.453125 940.4375 C 487.394531 939.210938 487.363281 937.980469 487.363281 936.753906 C 487.363281 935.527344 487.394531 934.300781 487.453125 933.074219 C 487.515625 931.847656 487.605469 930.621094 487.726562 929.398438 C 487.84375 928.175781 487.996094 926.957031 488.175781 925.742188 C 488.355469 924.527344 488.566406 923.320312 488.804688 922.113281 C 489.042969 920.910156 489.3125 919.710938 489.609375 918.523438 C 489.910156 917.332031 490.238281 916.148438 490.59375 914.972656 C 490.949219 913.796875 491.335938 912.628906 491.746094 911.472656 C 492.160156 910.316406 492.601562 909.171875 493.074219 908.039062 C 493.542969 906.902344 494.039062 905.78125 494.5625 904.671875 C 495.089844 903.5625 495.640625 902.464844 496.21875 901.382812 C 496.796875 900.296875 497.402344 899.230469 498.035156 898.175781 C 498.664062 897.125 499.320312 896.085938 500.003906 895.066406 C 500.683594 894.042969 501.390625 893.039062 502.121094 892.054688 C 502.855469 891.066406 503.609375 890.101562 504.386719 889.152344 C 505.167969 888.203125 505.96875 887.273438 506.792969 886.363281 C 507.617188 885.453125 508.460938 884.5625 509.332031 883.695312 C 510.199219 882.824219 511.085938 881.980469 511.996094 881.15625 C 512.90625 880.328125 513.835938 879.527344 514.785156 878.75 C 515.734375 877.96875 516.699219 877.214844 517.6875 876.484375 C 518.671875 875.75 519.675781 875.042969 520.695312 874.363281 C 521.714844 873.679688 522.753906 873.023438 523.804688 872.390625 C 524.859375 871.761719 525.925781 871.15625 527.007812 870.578125 C 528.089844 869.996094 529.1875 869.445312 530.296875 868.921875 C 531.40625 868.394531 532.527344 867.898438 533.664062 867.429688 C 534.796875 866.957031 535.941406 866.515625 537.097656 866.101562 C 538.253906 865.6875 539.417969 865.304688 540.59375 864.945312 C 541.765625 864.589844 542.949219 864.261719 544.140625 863.964844 C 545.332031 863.667969 546.527344 863.398438 547.730469 863.15625 C 548.9375 862.917969 550.144531 862.707031 551.359375 862.527344 C 552.574219 862.347656 553.789062 862.199219 555.011719 862.078125 C 556.234375 861.957031 557.457031 861.867188 558.683594 861.804688 C 559.910156 861.746094 561.136719 861.714844 562.363281 861.714844 C 563.589844 861.714844 564.816406 861.746094 566.042969 861.804688 C 567.269531 861.867188 568.492188 861.957031 569.714844 862.078125 C 570.9375 862.199219 572.152344 862.347656 573.367188 862.527344 C 574.582031 862.707031 575.792969 862.917969 576.996094 863.15625 C 578.199219 863.398438 579.394531 863.667969 580.585938 863.964844 C 581.777344 864.261719 582.960938 864.589844 584.136719 864.945312 C 585.308594 865.304688 586.472656 865.6875 587.628906 866.101562 C 588.785156 866.515625 589.929688 866.957031 591.066406 867.429688 C 592.199219 867.898438 593.320312 868.394531 594.429688 868.921875 C 595.539062 869.445312 596.636719 869.996094 597.71875 870.578125 C 598.800781 871.15625 599.867188 871.761719 600.921875 872.390625 C 601.972656 873.023438 603.011719 873.679688 604.03125 874.363281 C 605.050781 875.042969 606.054688 875.75 607.039062 876.484375 C 608.027344 877.214844 608.996094 877.96875 609.941406 878.75 C 610.890625 879.527344 611.820312 880.328125 612.730469 881.15625 C 613.640625 881.980469 614.527344 882.824219 615.398438 883.695312 C 616.265625 884.5625 617.109375 885.453125 617.933594 886.363281 C 618.757812 887.273438 619.5625 888.203125 620.339844 889.152344 C 621.117188 890.101562 621.871094 891.066406 622.605469 892.054688 C 623.335938 893.039062 624.042969 894.042969 624.722656 895.066406 C 625.40625 896.085938 626.0625 897.125 626.691406 898.175781 C 627.324219 899.230469 627.929688 900.296875 628.507812 901.382812 C 629.085938 902.464844 629.636719 903.5625 630.164062 904.671875 C 630.6875 905.78125 631.183594 906.902344 631.65625 908.039062 C 632.125 909.171875 632.566406 910.316406 632.980469 911.472656 C 633.394531 912.628906 633.777344 913.796875 634.132812 914.972656 C 634.492188 916.148438 634.816406 917.332031 635.117188 918.523438 C 635.414062 919.710938 635.683594 920.910156 635.921875 922.113281 C 636.160156 923.320312 636.371094 924.527344 636.550781 925.742188 C 636.730469 926.957031 636.882812 928.175781 637.003906 929.398438 C 637.121094 930.621094 637.214844 931.847656 637.273438 933.074219 C 637.332031 934.300781 637.363281 935.527344 637.363281 936.753906 Z M 637.363281 936.753906 "
       fill-opacity="1"
       fill-rule="nonzero"
       id="path268"
       style="fill:#000000" />
    <g
       clip-path="url(#75dc3008fd)"
       id="g272"
       style="fill:#000000">
      <path
         fill="#000000"
         d="M 824.863281 373.964844 C 824.863281 369.667969 824.757812 365.371094 824.546875 361.078125 C 824.335938 356.785156 824.019531 352.5 823.597656 348.222656 C 823.179688 343.945312 822.652344 339.679688 822.023438 335.429688 C 821.390625 331.175781 820.65625 326.945312 819.820312 322.726562 C 818.980469 318.511719 818.039062 314.320312 816.996094 310.152344 C 815.953125 305.980469 814.808594 301.839844 813.558594 297.726562 C 812.3125 293.613281 810.964844 289.535156 809.519531 285.488281 C 808.070312 281.441406 806.527344 277.429688 804.882812 273.460938 C 803.238281 269.488281 801.496094 265.558594 799.660156 261.675781 C 797.824219 257.789062 795.894531 253.953125 793.867188 250.160156 C 791.84375 246.371094 789.726562 242.632812 787.515625 238.945312 C 785.308594 235.257812 783.011719 231.628906 780.625 228.054688 C 778.238281 224.480469 775.765625 220.964844 773.207031 217.515625 C 770.644531 214.0625 768.003906 210.675781 765.277344 207.351562 C 762.554688 204.03125 759.75 200.777344 756.863281 197.589844 C 753.976562 194.40625 751.015625 191.292969 747.980469 188.253906 C 744.941406 185.214844 741.832031 182.253906 738.648438 179.367188 C 735.464844 176.480469 732.210938 173.671875 728.890625 170.945312 C 725.570312 168.21875 722.183594 165.574219 718.734375 163.015625 C 715.285156 160.453125 711.773438 157.980469 708.199219 155.59375 C 704.628906 153.203125 701 150.90625 697.316406 148.695312 C 693.628906 146.488281 689.894531 144.367188 686.105469 142.34375 C 682.316406 140.316406 678.480469 138.382812 674.597656 136.546875 C 670.714844 134.707031 666.785156 132.96875 662.816406 131.324219 C 658.847656 129.679688 654.84375 128.132812 650.796875 126.683594 C 646.753906 125.234375 642.675781 123.886719 638.5625 122.640625 C 634.453125 121.390625 630.3125 120.246094 626.144531 119.203125 C 621.980469 118.15625 617.789062 117.214844 613.574219 116.378906 C 609.363281 115.539062 605.128906 114.804688 600.878906 114.171875 C 596.628906 113.542969 592.367188 113.015625 588.09375 112.59375 C 583.816406 112.175781 579.535156 111.859375 575.242188 111.648438 C 570.953125 111.4375 566.660156 111.332031 562.363281 111.332031 C 558.066406 111.332031 553.773438 111.4375 549.484375 111.648438 C 545.191406 111.859375 540.910156 112.175781 536.632812 112.59375 C 532.359375 113.015625 528.097656 113.542969 523.847656 114.171875 C 519.597656 114.804688 515.367188 115.539062 511.152344 116.378906 C 506.9375 117.214844 502.75 118.15625 498.582031 119.203125 C 494.414062 120.246094 490.273438 121.390625 486.164062 122.640625 C 482.054688 123.886719 477.976562 125.234375 473.929688 126.683594 C 469.886719 128.132812 465.878906 129.679688 461.910156 131.324219 C 457.941406 132.96875 454.015625 134.707031 450.128906 136.546875 C 446.246094 138.382812 442.410156 140.316406 438.621094 142.34375 C 434.832031 144.367188 431.097656 146.488281 427.410156 148.695312 C 423.726562 150.90625 420.097656 153.203125 416.527344 155.59375 C 412.953125 157.980469 409.441406 160.453125 405.992188 163.015625 C 402.542969 165.574219 399.15625 168.21875 395.835938 170.945312 C 392.515625 173.671875 389.261719 176.480469 386.078125 179.367188 C 382.894531 182.253906 379.785156 185.214844 376.75 188.253906 C 373.710938 191.292969 370.75 194.40625 367.863281 197.589844 C 364.980469 200.777344 362.171875 204.03125 359.449219 207.351562 C 356.722656 210.675781 354.082031 214.0625 351.523438 217.515625 C 348.960938 220.964844 346.488281 224.480469 344.101562 228.054688 C 341.714844 231.628906 339.417969 235.257812 337.210938 238.945312 C 335 242.632812 332.882812 246.371094 330.859375 250.160156 C 328.835938 253.953125 326.902344 257.789062 325.066406 261.675781 C 323.230469 265.558594 321.488281 269.488281 319.84375 273.460938 C 318.203125 277.429688 316.65625 281.441406 315.207031 285.488281 C 313.761719 289.535156 312.414062 293.613281 311.167969 297.726562 C 309.917969 301.839844 308.773438 305.980469 307.730469 310.152344 C 306.6875 314.320312 305.746094 318.511719 304.90625 322.726562 C 304.070312 326.945312 303.335938 331.175781 302.703125 335.429688 C 302.074219 339.679688 301.546875 343.945312 301.128906 348.222656 C 300.707031 352.5 300.390625 356.785156 300.179688 361.078125 C 299.96875 365.371094 299.863281 369.667969 299.863281 373.964844 C 299.863281 375.195312 299.894531 376.421875 299.953125 377.648438 C 300.015625 378.875 300.105469 380.097656 300.226562 381.320312 C 300.34375 382.542969 300.496094 383.761719 300.675781 384.976562 C 300.855469 386.191406 301.066406 387.402344 301.304688 388.605469 C 301.542969 389.808594 301.8125 391.007812 302.109375 392.199219 C 302.410156 393.390625 302.738281 394.574219 303.09375 395.75 C 303.449219 396.921875 303.835938 398.089844 304.246094 399.246094 C 304.660156 400.402344 305.101562 401.546875 305.574219 402.679688 C 306.042969 403.816406 306.539062 404.9375 307.0625 406.046875 C 307.589844 407.160156 308.140625 408.253906 308.71875 409.339844 C 309.296875 410.421875 309.902344 411.488281 310.535156 412.542969 C 311.164062 413.597656 311.820312 414.632812 312.503906 415.65625 C 313.183594 416.675781 313.890625 417.679688 314.625 418.667969 C 315.355469 419.652344 316.109375 420.621094 316.886719 421.570312 C 317.667969 422.519531 318.46875 423.449219 319.292969 424.359375 C 320.117188 425.269531 320.960938 426.15625 321.832031 427.027344 C 322.699219 427.894531 323.585938 428.742188 324.496094 429.566406 C 325.40625 430.390625 326.335938 431.191406 327.285156 431.972656 C 328.234375 432.75 329.199219 433.503906 330.1875 434.238281 C 331.171875 434.96875 332.175781 435.675781 333.195312 436.359375 C 334.214844 437.039062 335.253906 437.695312 336.304688 438.328125 C 337.359375 438.960938 338.425781 439.566406 339.507812 440.144531 C 340.589844 440.722656 341.6875 441.273438 342.796875 441.800781 C 343.90625 442.324219 345.027344 442.820312 346.164062 443.292969 C 347.296875 443.761719 348.441406 444.203125 349.597656 444.617188 C 350.753906 445.03125 351.917969 445.417969 353.09375 445.773438 C 354.265625 446.128906 355.449219 446.457031 356.640625 446.753906 C 357.832031 447.054688 359.027344 447.324219 360.230469 447.5625 C 361.4375 447.800781 362.644531 448.011719 363.859375 448.191406 C 365.074219 448.371094 366.289062 448.523438 367.511719 448.644531 C 368.734375 448.761719 369.957031 448.851562 371.183594 448.914062 C 372.410156 448.972656 373.636719 449.003906 374.863281 449.003906 C 376.089844 449.003906 377.316406 448.972656 378.542969 448.914062 C 379.769531 448.851562 380.992188 448.761719 382.214844 448.644531 C 383.4375 448.523438 384.652344 448.371094 385.867188 448.191406 C 387.082031 448.011719 388.292969 447.800781 389.496094 447.5625 C 390.699219 447.324219 391.894531 447.054688 393.085938 446.753906 C 394.277344 446.457031 395.460938 446.128906 396.636719 445.773438 C 397.808594 445.417969 398.976562 445.03125 400.128906 444.617188 C 401.285156 444.203125 402.429688 443.761719 403.566406 443.292969 C 404.699219 442.820312 405.820312 442.324219 406.929688 441.800781 C 408.039062 441.273438 409.136719 440.722656 410.21875 440.144531 C 411.300781 439.566406 412.367188 438.960938 413.421875 438.328125 C 414.472656 437.695312 415.511719 437.039062 416.53125 436.359375 C 417.550781 435.675781 418.554688 434.96875 419.542969 434.238281 C 420.527344 433.503906 421.496094 432.75 422.441406 431.972656 C 423.390625 431.191406 424.320312 430.390625 425.230469 429.566406 C 426.140625 428.742188 427.027344 427.894531 427.898438 427.027344 C 428.765625 426.15625 429.609375 425.269531 430.433594 424.359375 C 431.257812 423.449219 432.0625 422.519531 432.839844 421.570312 C 433.617188 420.621094 434.371094 419.652344 435.105469 418.664062 C 435.835938 417.679688 436.542969 416.675781 437.222656 415.65625 C 437.90625 414.632812 438.5625 413.597656 439.191406 412.542969 C 439.824219 411.488281 440.429688 410.421875 441.007812 409.339844 C 441.585938 408.253906 442.136719 407.160156 442.664062 406.046875 C 443.1875 404.9375 443.683594 403.816406 444.15625 402.679688 C 444.625 401.546875 445.066406 400.402344 445.480469 399.246094 C 445.894531 398.089844 446.277344 396.921875 446.632812 395.75 C 446.992188 394.574219 447.316406 393.390625 447.617188 392.199219 C 447.914062 391.007812 448.183594 389.808594 448.421875 388.605469 C 448.660156 387.402344 448.871094 386.191406 449.050781 384.976562 C 449.230469 383.761719 449.382812 382.542969 449.503906 381.320312 C 449.621094 380.097656 449.714844 378.875 449.773438 377.648438 C 449.832031 376.421875 449.863281 375.195312 449.863281 373.964844 C 449.863281 372.125 449.910156 370.28125 450 368.441406 C 450.089844 366.601562 450.226562 364.765625 450.40625 362.933594 C 450.585938 361.101562 450.8125 359.273438 451.082031 357.449219 C 451.351562 355.628906 451.667969 353.8125 452.023438 352.007812 C 452.382812 350.199219 452.789062 348.402344 453.234375 346.617188 C 453.683594 344.828125 454.171875 343.054688 454.707031 341.292969 C 455.242188 339.527344 455.820312 337.78125 456.441406 336.046875 C 457.058594 334.3125 457.722656 332.59375 458.425781 330.890625 C 459.132812 329.191406 459.878906 327.507812 460.664062 325.839844 C 461.453125 324.175781 462.28125 322.53125 463.148438 320.90625 C 464.015625 319.28125 464.921875 317.679688 465.867188 316.097656 C 466.816406 314.519531 467.800781 312.964844 468.824219 311.433594 C 469.847656 309.898438 470.90625 308.394531 472.003906 306.914062 C 473.097656 305.433594 474.230469 303.984375 475.398438 302.558594 C 476.566406 301.136719 477.769531 299.742188 479.007812 298.375 C 480.242188 297.011719 481.511719 295.679688 482.8125 294.375 C 484.117188 293.074219 485.449219 291.804688 486.8125 290.566406 C 488.175781 289.328125 489.570312 288.125 490.996094 286.957031 C 492.417969 285.789062 493.867188 284.65625 495.347656 283.558594 C 496.828125 282.460938 498.332031 281.402344 499.863281 280.378906 C 501.394531 279.355469 502.949219 278.367188 504.527344 277.421875 C 506.105469 276.476562 507.707031 275.566406 509.332031 274.699219 C 510.957031 273.832031 512.597656 273.003906 514.261719 272.214844 C 515.929688 271.425781 517.609375 270.679688 519.3125 269.976562 C 521.011719 269.269531 522.730469 268.609375 524.464844 267.988281 C 526.195312 267.367188 527.945312 266.789062 529.707031 266.253906 C 531.46875 265.71875 533.242188 265.230469 535.027344 264.78125 C 536.8125 264.332031 538.609375 263.929688 540.414062 263.570312 C 542.222656 263.210938 544.035156 262.898438 545.855469 262.625 C 547.675781 262.355469 549.503906 262.128906 551.335938 261.949219 C 553.167969 261.769531 555.003906 261.632812 556.84375 261.542969 C 558.683594 261.453125 560.523438 261.40625 562.363281 261.40625 C 564.203125 261.40625 566.042969 261.453125 567.882812 261.542969 C 569.722656 261.632812 571.558594 261.769531 573.390625 261.949219 C 575.222656 262.128906 577.050781 262.355469 578.871094 262.625 C 580.691406 262.898438 582.503906 263.210938 584.3125 263.570312 C 586.117188 263.929688 587.914062 264.332031 589.699219 264.78125 C 591.484375 265.230469 593.257812 265.71875 595.019531 266.253906 C 596.78125 266.789062 598.53125 267.367188 600.265625 267.988281 C 601.996094 268.609375 603.714844 269.269531 605.414062 269.976562 C 607.117188 270.679688 608.800781 271.425781 610.464844 272.214844 C 612.128906 273.003906 613.773438 273.832031 615.394531 274.699219 C 617.019531 275.566406 618.621094 276.476562 620.199219 277.421875 C 621.777344 278.367188 623.335938 279.355469 624.863281 280.378906 C 626.394531 281.402344 627.902344 282.460938 629.378906 283.558594 C 630.859375 284.65625 632.308594 285.789062 633.734375 286.957031 C 635.15625 288.125 636.550781 289.328125 637.914062 290.566406 C 639.277344 291.804688 640.609375 293.074219 641.914062 294.375 C 643.214844 295.679688 644.484375 297.011719 645.71875 298.375 C 646.957031 299.742188 648.160156 301.136719 649.328125 302.558594 C 650.496094 303.984375 651.628906 305.433594 652.722656 306.914062 C 653.820312 308.394531 654.882812 309.898438 655.902344 311.433594 C 656.925781 312.964844 657.910156 314.519531 658.859375 316.097656 C 659.804688 317.679688 660.710938 319.28125 661.578125 320.90625 C 662.449219 322.53125 663.273438 324.175781 664.0625 325.839844 C 664.847656 327.507812 665.59375 329.191406 666.300781 330.890625 C 667.003906 332.59375 667.667969 334.3125 668.289062 336.046875 C 668.90625 337.78125 669.484375 339.527344 670.019531 341.292969 C 670.554688 343.054688 671.042969 344.828125 671.492188 346.617188 C 671.9375 348.402344 672.34375 350.199219 672.703125 352.007812 C 673.0625 353.8125 673.375 355.628906 673.644531 357.449219 C 673.917969 359.273438 674.140625 361.101562 674.320312 362.933594 C 674.503906 364.765625 674.636719 366.601562 674.726562 368.441406 C 674.820312 370.28125 674.863281 372.125 674.863281 373.964844 C 674.863281 375.808594 674.820312 377.648438 674.726562 379.488281 C 674.636719 381.328125 674.503906 383.164062 674.320312 385 C 674.140625 386.832031 673.917969 388.660156 673.644531 390.480469 C 673.375 392.304688 673.0625 394.117188 672.703125 395.925781 C 672.34375 397.730469 671.9375 399.527344 671.492188 401.316406 C 671.042969 403.101562 670.554688 404.875 670.019531 406.640625 C 669.484375 408.402344 668.90625 410.152344 668.289062 411.886719 C 667.667969 413.621094 667.003906 415.335938 666.300781 417.039062 C 665.59375 418.742188 664.847656 420.425781 664.0625 422.089844 C 663.273438 423.753906 662.449219 425.402344 661.578125 427.023438 C 660.710938 428.648438 659.804688 430.25 658.859375 431.832031 C 657.910156 433.410156 656.925781 434.96875 655.902344 436.5 C 654.882812 438.03125 653.820312 439.535156 652.722656 441.015625 C 651.628906 442.496094 650.496094 443.949219 649.328125 445.371094 C 648.160156 446.796875 646.957031 448.191406 645.71875 449.554688 C 644.484375 450.917969 643.214844 452.253906 641.914062 453.554688 C 640.609375 454.859375 639.277344 456.128906 637.914062 457.367188 C 636.550781 458.601562 635.15625 459.804688 633.734375 460.972656 C 632.308594 462.140625 630.859375 463.277344 629.378906 464.371094 C 627.902344 465.46875 626.394531 466.53125 624.863281 467.554688 C 623.335938 468.578125 621.777344 469.5625 620.199219 470.507812 C 618.621094 471.457031 617.019531 472.363281 615.394531 473.234375 C 613.773438 474.101562 612.128906 474.929688 610.464844 475.714844 C 608.800781 476.503906 607.117188 477.25 605.414062 477.957031 C 603.714844 478.660156 601.996094 479.324219 600.265625 479.945312 C 598.53125 480.5625 596.78125 481.140625 595.019531 481.675781 C 593.257812 482.210938 591.484375 482.703125 589.699219 483.148438 C 587.914062 483.597656 586.117188 484 584.3125 484.359375 C 582.503906 484.71875 580.691406 485.035156 578.871094 485.304688 C 577.050781 485.574219 575.222656 485.800781 573.390625 485.980469 C 571.558594 486.160156 569.722656 486.296875 567.882812 486.386719 C 566.042969 486.476562 564.203125 486.523438 562.363281 486.523438 C 561.136719 486.523438 559.910156 486.554688 558.683594 486.613281 C 557.457031 486.675781 556.234375 486.765625 555.011719 486.886719 C 553.789062 487.003906 552.574219 487.15625 551.359375 487.335938 C 550.144531 487.515625 548.9375 487.726562 547.730469 487.964844 C 546.527344 488.207031 545.332031 488.472656 544.140625 488.773438 C 542.949219 489.070312 541.765625 489.398438 540.59375 489.753906 C 539.417969 490.113281 538.253906 490.496094 537.097656 490.910156 C 535.941406 491.324219 534.796875 491.765625 533.664062 492.238281 C 532.527344 492.707031 531.40625 493.203125 530.296875 493.730469 C 529.1875 494.253906 528.09375 494.804688 527.007812 495.386719 C 525.925781 495.964844 524.859375 496.570312 523.808594 497.199219 C 522.753906 497.832031 521.71875 498.488281 520.695312 499.171875 C 519.675781 499.851562 518.671875 500.558594 517.6875 501.292969 C 516.703125 502.023438 515.734375 502.777344 514.785156 503.558594 C 513.835938 504.335938 512.90625 505.136719 511.996094 505.964844 C 511.089844 506.789062 510.199219 507.632812 509.332031 508.503906 C 508.464844 509.371094 507.617188 510.261719 506.792969 511.171875 C 505.96875 512.082031 505.167969 513.011719 504.390625 513.960938 C 503.609375 514.910156 502.855469 515.875 502.125 516.863281 C 501.394531 517.847656 500.6875 518.851562 500.003906 519.875 C 499.324219 520.894531 498.667969 521.933594 498.035156 522.984375 C 497.402344 524.039062 496.800781 525.105469 496.21875 526.191406 C 495.640625 527.273438 495.089844 528.371094 494.566406 529.480469 C 494.039062 530.589844 493.542969 531.710938 493.074219 532.847656 C 492.605469 533.980469 492.164062 535.125 491.75 536.28125 C 491.335938 537.4375 490.949219 538.605469 490.59375 539.78125 C 490.238281 540.953125 489.910156 542.136719 489.613281 543.328125 C 489.3125 544.519531 489.042969 545.71875 488.804688 546.921875 C 488.566406 548.128906 488.355469 549.335938 488.175781 550.550781 C 487.996094 551.765625 487.84375 552.984375 487.726562 554.207031 C 487.605469 555.429688 487.515625 556.652344 487.453125 557.878906 C 487.394531 559.105469 487.363281 560.332031 487.363281 561.5625 L 487.363281 730.398438 C 487.363281 731.625 487.394531 732.855469 487.453125 734.082031 C 487.515625 735.308594 487.605469 736.53125 487.726562 737.753906 C 487.84375 738.976562 487.996094 740.195312 488.175781 741.410156 C 488.355469 742.625 488.566406 743.832031 488.804688 745.039062 C 489.042969 746.242188 489.3125 747.441406 489.609375 748.632812 C 489.910156 749.824219 490.238281 751.003906 490.59375 752.179688 C 490.949219 753.355469 491.335938 754.523438 491.746094 755.679688 C 492.160156 756.835938 492.601562 757.980469 493.074219 759.113281 C 493.542969 760.25 494.039062 761.371094 494.5625 762.480469 C 495.089844 763.589844 495.640625 764.6875 496.21875 765.769531 C 496.796875 766.855469 497.402344 767.921875 498.035156 768.976562 C 498.664062 770.03125 499.320312 771.066406 500.003906 772.085938 C 500.683594 773.109375 501.390625 774.113281 502.121094 775.097656 C 502.855469 776.085938 503.609375 777.054688 504.386719 778.003906 C 505.167969 778.953125 505.96875 779.882812 506.792969 780.792969 C 507.617188 781.703125 508.460938 782.589844 509.332031 783.457031 C 510.199219 784.328125 511.085938 785.171875 511.996094 786 C 512.90625 786.824219 513.835938 787.625 514.785156 788.402344 C 515.734375 789.183594 516.699219 789.9375 517.6875 790.667969 C 518.671875 791.402344 519.675781 792.109375 520.695312 792.789062 C 521.714844 793.472656 522.753906 794.128906 523.804688 794.761719 C 524.859375 795.390625 525.925781 795.996094 527.007812 796.578125 C 528.089844 797.15625 529.1875 797.707031 530.296875 798.234375 C 531.40625 798.757812 532.527344 799.253906 533.664062 799.726562 C 534.796875 800.195312 535.941406 800.636719 537.097656 801.050781 C 538.253906 801.464844 539.417969 801.847656 540.59375 802.207031 C 541.765625 802.5625 542.949219 802.890625 544.140625 803.1875 C 545.332031 803.488281 546.527344 803.753906 547.730469 803.996094 C 548.9375 804.234375 550.144531 804.445312 551.359375 804.625 C 552.574219 804.804688 553.789062 804.957031 555.011719 805.074219 C 556.234375 805.195312 557.457031 805.285156 558.683594 805.347656 C 559.910156 805.40625 561.136719 805.4375 562.363281 805.4375 C 563.589844 805.4375 564.816406 805.40625 566.042969 805.347656 C 567.269531 805.285156 568.492188 805.195312 569.714844 805.074219 C 570.9375 804.957031 572.152344 804.804688 573.367188 804.625 C 574.582031 804.445312 575.792969 804.234375 576.996094 803.996094 C 578.199219 803.753906 579.394531 803.488281 580.585938 803.1875 C 581.777344 802.890625 582.960938 802.5625 584.136719 802.207031 C 585.308594 801.847656 586.472656 801.464844 587.628906 801.050781 C 588.785156 800.636719 589.929688 800.195312 591.066406 799.726562 C 592.199219 799.253906 593.320312 798.757812 594.429688 798.234375 C 595.539062 797.707031 596.636719 797.15625 597.71875 796.578125 C 598.800781 795.996094 599.867188 795.390625 600.921875 794.761719 C 601.972656 794.128906 603.011719 793.472656 604.03125 792.789062 C 605.050781 792.109375 606.054688 791.402344 607.039062 790.671875 C 608.027344 789.9375 608.996094 789.183594 609.941406 788.402344 C 610.890625 787.625 611.820312 786.824219 612.730469 786 C 613.640625 785.171875 614.527344 784.328125 615.398438 783.457031 C 616.265625 782.589844 617.109375 781.703125 617.933594 780.792969 C 618.757812 779.882812 619.5625 778.953125 620.339844 778.003906 C 621.117188 777.054688 621.871094 776.085938 622.605469 775.097656 C 623.335938 774.113281 624.042969 773.109375 624.722656 772.085938 C 625.40625 771.066406 626.0625 770.03125 626.691406 768.976562 C 627.324219 767.921875 627.929688 766.855469 628.507812 765.769531 C 629.085938 764.6875 629.636719 763.589844 630.164062 762.480469 C 630.6875 761.371094 631.183594 760.25 631.65625 759.113281 C 632.125 757.980469 632.566406 756.835938 632.980469 755.679688 C 633.394531 754.523438 633.777344 753.355469 634.132812 752.179688 C 634.492188 751.003906 634.816406 749.824219 635.117188 748.632812 C 635.414062 747.441406 635.683594 746.242188 635.921875 745.039062 C 636.160156 743.832031 636.371094 742.625 636.550781 741.410156 C 636.730469 740.195312 636.882812 738.976562 637.003906 737.753906 C 637.121094 736.53125 637.214844 735.308594 637.273438 734.082031 C 637.332031 732.855469 637.363281 731.625 637.363281 730.398438 L 637.363281 625.539062 C 640.71875 624.535156 644.050781 623.464844 647.363281 622.328125 C 650.675781 621.1875 653.960938 619.984375 657.226562 618.714844 C 660.488281 617.449219 663.726562 616.113281 666.9375 614.714844 C 670.144531 613.316406 673.328125 611.855469 676.480469 610.328125 C 679.628906 608.804688 682.75 607.214844 685.839844 605.566406 C 688.929688 603.914062 691.980469 602.203125 695.003906 600.429688 C 698.023438 598.65625 701.003906 596.824219 703.953125 594.933594 C 706.898438 593.042969 709.808594 591.09375 712.675781 589.085938 C 715.546875 587.078125 718.375 585.011719 721.160156 582.890625 C 723.945312 580.769531 726.691406 578.59375 729.390625 576.363281 C 732.089844 574.132812 734.742188 571.847656 737.351562 569.511719 C 739.960938 567.175781 742.519531 564.785156 745.035156 562.347656 C 747.546875 559.90625 750.011719 557.417969 752.425781 554.882812 C 754.835938 552.34375 757.199219 549.757812 759.511719 547.125 C 761.820312 544.496094 764.078125 541.816406 766.28125 539.09375 C 768.484375 536.371094 770.632812 533.605469 772.726562 530.796875 C 774.820312 527.988281 776.855469 525.140625 778.835938 522.25 C 780.8125 519.363281 782.734375 516.433594 784.597656 513.46875 C 786.460938 510.5 788.261719 507.496094 790.003906 504.460938 C 791.746094 501.421875 793.425781 498.347656 795.046875 495.242188 C 796.667969 492.136719 798.222656 489 799.71875 485.832031 C 801.210938 482.664062 802.644531 479.46875 804.011719 476.242188 C 805.375 473.015625 806.679688 469.765625 807.914062 466.488281 C 809.152344 463.210938 810.324219 459.910156 811.429688 456.585938 C 812.535156 453.261719 813.570312 449.917969 814.542969 446.550781 C 815.515625 443.1875 816.417969 439.800781 817.253906 436.402344 C 818.089844 433 818.859375 429.582031 819.558594 426.148438 C 820.257812 422.71875 820.890625 419.273438 821.453125 415.8125 C 822.015625 412.355469 822.507812 408.890625 822.929688 405.410156 C 823.355469 401.933594 823.710938 398.449219 823.992188 394.957031 C 824.277344 391.464844 824.492188 387.972656 824.636719 384.46875 C 824.785156 380.96875 824.859375 377.46875 824.863281 373.964844 Z M 824.863281 373.964844 "
         fill-opacity="1"
         fill-rule="nonzero"
         id="path270"
         style="fill:#000000" />
    </g>
  </g>
</svg>
